<?xml version="1.0" standalone="no"?>
<!DOCTYPE svg PUBLIC "-//W3C//DTD SVG 20010904//EN"
 "http://www.w3.org/TR/2001/REC-SVG-20010904/DTD/svg10.dtd">
<svg version="1.0" xmlns="http://www.w3.org/2000/svg"
 width="1200.000000pt" height="1200.000000pt" viewBox="0 0 1200.000000 1200.000000"
 preserveAspectRatio="xMidYMid meet">

<g transform="translate(0.000000,1200.000000) scale(0.100000,-0.100000)"
fill="#000000" stroke="none">
<path d="M0 6000 l0 -6000 6000 0 6000 0 0 6000 0 6000 -6000 0 -6000 0 0
-6000z m10050 0 l0 -2400 -4050 0 -4050 0 0 2400 0 2400 4050 0 4050 0 0
-2400z"/>
<path d="M2100 6000 l0 -2250 3900 0 3900 0 0 2250 0 2250 -3900 0 -3900 0 0
-2250z m7650 1235 l0 -865 -1425 0 -1425 0 0 -70 0 -70 1425 0 1425 0 0 -1165
0 -1165 -3750 0 -3750 0 0 1165 0 1165 1425 0 1425 0 0 70 0 70 -1425 0 -1425
0 0 865 0 865 3750 0 3750 0 0 -865z"/>
<path d="M5798 7454 l-188 -94 -1 -213 0 -212 -180 -87 -179 -88 0 -235 0
-235 196 -98 196 -97 179 92 180 93 179 -93 179 -92 196 97 195 98 0 236 0
235 -180 87 -179 87 -1 211 0 211 -189 96 c-104 54 -195 97 -202 96 -8 0 -98
-43 -201 -95z m345 -49 c75 -38 135 -70 134 -71 -1 0 -65 -33 -141 -72 l-139
-72 -138 72 c-79 41 -133 75 -126 79 114 62 263 138 268 136 4 -1 68 -33 142
-72z m-318 -197 l145 -73 0 -173 c0 -107 -4 -172 -10 -170 -5 2 -72 35 -149
73 l-140 70 -1 173 c0 94 2 172 5 172 3 0 70 -33 150 -72z m505 27 c0 -31 -5
-47 -15 -51 -8 -4 -15 -16 -15 -29 0 -13 7 -25 15 -29 11 -4 15 -21 15 -61 0
-40 -4 -57 -15 -61 -21 -8 -19 -50 3 -59 14 -6 13 -9 -11 -22 -16 -8 -39 -12
-51 -9 -24 6 -41 -2 -47 -22 -4 -11 -161 -102 -175 -102 -2 0 -4 16 -4 36 0
28 3 35 15 30 24 -9 45 4 45 29 0 25 -21 38 -45 29 -12 -5 -15 5 -15 61 0 56
3 66 15 61 24 -9 45 4 45 29 0 25 -21 38 -45 29 -11 -5 -15 1 -15 18 0 19 10
29 45 46 l45 22 0 -24 c0 -26 21 -39 45 -30 21 8 19 50 -2 59 -15 6 -14 9 10
22 16 8 36 12 44 9 22 -9 53 3 53 18 0 13 37 44 53 45 4 1 7 -19 7 -44z m-551
-427 c77 -40 139 -73 138 -74 -1 -1 -64 -34 -140 -73 l-138 -72 -139 73 c-79
41 -134 75 -127 79 43 24 262 139 264 139 2 0 66 -32 142 -72z m722 0 c77 -39
138 -73 136 -74 -2 -2 -64 -35 -140 -74 l-136 -70 -141 70 c-77 38 -140 72
-140 75 0 4 267 143 278 144 2 1 66 -31 143 -71z m-1036 -200 l145 -73 0 -172
c0 -95 -2 -173 -5 -173 -3 0 -70 33 -150 72 l-145 73 0 172 c0 95 2 173 5 173
3 0 70 -33 150 -72z m505 27 c0 -31 -5 -47 -15 -51 -8 -4 -15 -16 -15 -29 0
-13 7 -25 15 -29 11 -4 15 -21 15 -61 0 -40 -4 -57 -15 -61 -21 -8 -19 -50 3
-59 15 -6 14 -8 -8 -20 -14 -8 -36 -12 -50 -10 -27 5 -45 -3 -51 -23 -4 -11
-161 -102 -175 -102 -2 0 -4 16 -4 36 0 28 3 35 15 30 24 -9 45 4 45 29 0 25
-21 38 -45 29 -12 -5 -15 5 -15 61 0 56 3 66 15 61 24 -9 45 4 45 29 0 25 -21
38 -45 29 -11 -5 -15 1 -15 18 0 19 10 29 45 46 l45 22 0 -24 c0 -26 21 -39
45 -30 21 8 19 50 -2 59 -15 6 -14 9 10 22 16 8 36 12 44 9 22 -9 53 3 53 18
0 13 37 44 53 45 4 1 7 -19 7 -44z m215 -27 l145 -73 0 -172 c0 -95 -2 -173
-5 -173 -3 0 -70 33 -150 72 l-145 73 0 172 c0 95 2 173 5 173 3 0 70 -33 150
-72z m491 -24 c-20 -14 -21 -50 -1 -58 11 -4 15 -21 15 -61 0 -40 -4 -57 -15
-61 -21 -8 -19 -50 3 -59 14 -6 13 -9 -11 -22 -16 -8 -39 -12 -51 -9 -24 6
-40 -2 -49 -25 -4 -14 -153 -99 -172 -99 -3 0 -5 16 -5 36 0 28 3 35 15 30 24
-9 45 4 45 29 0 25 -21 38 -45 29 -12 -5 -15 5 -15 61 0 56 3 66 15 61 24 -9
45 4 45 29 0 25 -21 38 -45 29 -11 -5 -15 1 -15 19 0 20 8 28 40 41 50 20 50
20 50 -3 0 -21 22 -33 45 -25 17 7 21 54 5 54 -5 0 -10 4 -10 8 0 12 50 33 61
26 15 -9 49 6 49 21 0 8 12 21 28 29 l27 14 3 -41 c2 -29 -1 -45 -12 -53z"/>
<path d="M6223 7093 c-18 -7 -16 -50 2 -57 24 -9 45 4 45 29 0 18 -22 40 -33
34 -1 0 -8 -3 -14 -6z"/>
<path d="M6133 7003 c-18 -7 -16 -50 2 -57 24 -9 45 4 45 29 0 18 -22 40 -33
34 -1 0 -8 -3 -14 -6z"/>
<path d="M5863 6493 c-18 -7 -16 -50 2 -57 24 -9 45 4 45 29 0 18 -22 40 -33
34 -1 0 -8 -3 -14 -6z"/>
<path d="M5773 6403 c-18 -7 -16 -50 2 -57 24 -9 45 4 45 29 0 18 -22 40 -33
34 -1 0 -8 -3 -14 -6z"/>
<path d="M6583 6493 c-18 -7 -16 -50 2 -57 24 -9 45 4 45 29 0 18 -22 40 -33
34 -1 0 -8 -3 -14 -6z"/>
<path d="M6493 6403 c-18 -7 -16 -50 2 -57 24 -9 45 4 45 29 0 18 -22 40 -33
34 -1 0 -8 -3 -14 -6z"/>
<path d="M7830 5040 l0 -320 70 0 70 0 0 58 c0 51 4 62 29 86 l29 28 69 -86
68 -86 83 0 c45 0 82 2 82 5 0 3 -45 63 -100 132 l-101 127 98 98 98 98 -85 0
-85 0 -90 -84 -90 -84 -3 174 -2 174 -70 0 -70 0 0 -320z"/>
<path d="M3230 5020 l0 -300 70 0 70 0 2 171 3 172 140 -171 140 -171 63 0 62
-1 0 300 0 300 -70 0 -70 0 -2 -176 -3 -177 -143 177 -142 176 -60 0 -60 0 0
-300z"/>
<path d="M4040 5175 c-102 -32 -164 -117 -164 -225 0 -78 25 -133 81 -179 125
-104 335 -66 402 72 46 94 20 224 -57 287 -67 55 -171 73 -262 45z m167 -140
c34 -34 35 -38 31 -92 -4 -48 -10 -61 -37 -85 -46 -42 -102 -39 -147 6 -30 30
-34 40 -34 86 0 46 4 56 34 86 28 28 42 34 76 34 35 0 48 -6 77 -35z"/>
<path d="M4667 5176 c-20 -8 -44 -19 -52 -26 -13 -10 -15 -9 -15 9 0 19 -5 21
-65 21 l-65 0 0 -315 0 -315 70 0 70 0 0 100 c0 55 2 100 5 100 3 0 16 -7 29
-15 33 -22 116 -30 162 -15 106 34 164 114 164 229 0 42 -7 80 -19 106 -49
107 -173 160 -284 121z m125 -135 c31 -27 33 -34 33 -91 0 -57 -2 -64 -33 -91
-47 -43 -102 -41 -148 5 -30 30 -34 40 -34 86 0 46 4 56 34 86 46 46 101 48
148 5z"/>
<path d="M5257 5176 c-20 -8 -44 -19 -52 -26 -13 -10 -15 -9 -15 9 0 19 -5 21
-65 21 l-65 0 0 -315 0 -315 70 0 70 0 0 100 c0 55 2 100 5 100 3 0 16 -7 29
-15 33 -22 116 -30 162 -15 106 34 164 114 164 229 0 42 -7 80 -19 106 -49
107 -173 160 -284 121z m125 -135 c31 -27 33 -34 33 -91 0 -57 -2 -64 -33 -91
-47 -43 -102 -41 -148 5 -30 30 -34 40 -34 86 0 46 4 56 34 86 46 46 101 48
148 5z"/>
<path d="M5790 5181 c-112 -37 -174 -118 -174 -231 0 -135 86 -221 234 -237
68 -7 151 15 195 51 l30 25 -38 39 -38 39 -37 -18 c-66 -34 -166 -18 -192 30
-5 11 -10 22 -10 25 0 3 77 6 170 6 l170 0 0 50 c0 127 -91 219 -225 226 -33
2 -71 0 -85 -5z m129 -115 c22 -12 51 -52 51 -71 0 -3 -49 -5 -109 -5 -104 0
-109 1 -104 20 15 57 101 87 162 56z"/>
<path d="M6410 5183 c-8 -3 -32 -14 -52 -24 -38 -18 -38 -18 -38 1 0 18 -7 20
-65 20 l-65 0 0 -230 0 -230 70 0 70 0 0 135 c0 103 4 143 15 166 28 53 109
66 150 24 24 -23 25 -28 25 -175 l0 -150 70 0 70 0 0 165 c0 177 -8 213 -58
258 -40 37 -142 58 -192 40z"/>
<path d="M6930 5181 c-112 -37 -174 -118 -174 -231 0 -135 86 -221 234 -237
68 -7 151 15 195 51 l30 25 -38 39 -38 39 -37 -18 c-66 -34 -166 -18 -192 30
-5 11 -10 22 -10 25 0 3 77 6 170 6 l170 0 0 50 c0 127 -91 219 -225 226 -33
2 -71 0 -85 -5z m129 -115 c22 -12 51 -52 51 -71 0 -3 -49 -5 -109 -5 -104 0
-109 1 -104 20 15 57 101 87 162 56z"/>
<path d="M7460 5175 c-102 -32 -164 -117 -164 -225 0 -47 6 -77 22 -107 74
-143 301 -179 406 -63 20 22 36 43 36 48 0 4 -23 20 -51 35 l-50 28 -35 -31
c-50 -44 -104 -42 -150 4 -30 30 -34 40 -34 86 0 46 4 56 34 86 46 46 100 48
150 4 l35 -31 50 26 c28 14 51 31 51 37 0 6 -20 30 -44 53 -65 62 -157 80
-256 50z"/>
<path d="M8510 5181 c-112 -37 -174 -118 -174 -231 0 -135 86 -221 234 -237
68 -7 151 15 195 51 l30 25 -38 39 -38 39 -37 -18 c-66 -34 -166 -18 -192 30
-5 11 -10 22 -10 25 0 3 77 6 170 6 l170 0 0 50 c0 127 -91 219 -225 226 -33
2 -71 0 -85 -5z m129 -115 c22 -12 51 -52 51 -71 0 -3 -49 -5 -109 -5 -104 0
-109 1 -104 20 15 57 101 87 162 56z"/>
</g>
</svg>
